<?xml version="1.0" encoding="UTF-8"?>
<svg id="Layer_1" data-name="Layer 1" xmlns="http://www.w3.org/2000/svg" viewBox="0 0 595.28 284.74">
  <defs>
    <style>
      .cls-1 {
        fill: #fff;
      }
    </style>
  </defs>
  <g>
    <path class="cls-1" d="M136.02,151.56v-51.63l-7.01-1.25c-.32-.77-.48-1.76-.48-2.98l.48-2.88c3.52-.64,8.35-.96,14.49-.96,2.75,0,5.33.08,7.73.24,2.4.16,4.11.3,5.13.43l1.63.29c.32.77.48,1.73.48,2.88l-.48,2.98-7.01,1.25v50.58h16.79l2.4-7.49c.83-.26,1.82-.39,2.98-.39l3.07.39c.58,2.43.86,6.21.86,11.32,0,.83-.05,1.66-.15,2.5-.09.83-.18,1.47-.24,1.92l-.19.58h-19.67c-4.8,0-9.52-.06-14.16-.19-4.64-.13-8.08-.25-10.32-.38l-3.36-.1c-.32-.77-.48-1.73-.48-2.88l.48-2.98,7.01-1.25Z"/>
    <path class="cls-1" d="M183.14,143.5v-16.32c0-5.5,1.62-9.63,4.85-12.38,3.23-2.75,8.56-4.13,15.98-4.13s12.78,1.34,15.69,4.03c2.91,2.69,4.37,6.85,4.37,12.48v11.23c-2.94.77-7.39,1.15-13.34,1.15h-13.34v3.94c0,3.07.67,5.23,2.02,6.48,1.34,1.25,3.78,1.87,7.29,1.87,2.62,0,5.22-.24,7.77-.72,2.56-.48,4.45-.94,5.66-1.39l1.82-.77c.57,1.09.86,2.43.86,4.03,0,.77-.07,1.49-.19,2.16-.13.67-.26,1.17-.39,1.49l-.29.48c-4.1,1.92-9.18,2.88-15.26,2.88-8.38,0-14.4-1.38-18.04-4.13-3.65-2.75-5.47-6.88-5.47-12.38ZM197.34,131.5h13.25v-4.32c0-3.01-.48-5.15-1.44-6.43-.96-1.28-2.69-1.92-5.18-1.92s-4.22.64-5.18,1.92c-.96,1.28-1.44,3.42-1.44,6.43v4.32Z"/>
    <path class="cls-1" d="M234.58,151.65v-51.83l-6.43-1.53c-.32-.7-.48-1.63-.48-2.78l.48-2.69c3.07-.64,7.26-.96,12.57-.96l8.06.58v22.74c.39-.32.91-.73,1.58-1.25s2.09-1.18,4.27-2.02c2.17-.83,4.38-1.25,6.62-1.25,5.18,0,8.93,1.38,11.23,4.13,2.3,2.75,3.45,6.88,3.45,12.38v24.47l6.43,1.53c.32.71.48,1.63.48,2.78l-.48,2.69c-3.07.64-7.26.96-12.57.96l-8.06-.58v-31.86c0-3.07-.42-5.23-1.25-6.48-.83-1.25-2.37-1.87-4.61-1.87-1.47,0-2.8.32-3.98.96-1.19.64-2,1.28-2.45,1.92l-.67,1.06v28.89l6.43,1.53c.32.71.48,1.63.48,2.78l-.48,2.69c-3.33.64-7.84.96-13.53.96-2.56,0-4.96-.08-7.2-.24-2.24-.16-3.87-.3-4.89-.43l-1.44-.29c-.32-.77-.48-1.66-.48-2.69l.48-2.78,6.43-1.53Z"/>
    <path class="cls-1" d="M292.07,151.65v-51.83l-6.43-1.53c-.32-.7-.48-1.63-.48-2.78l.48-2.69c3.07-.64,7.26-.96,12.57-.96l8.06.58v59.22l6.43,1.53c.32.71.48,1.63.48,2.78l-.48,2.69c-3.33.64-7.84.96-13.53.96-2.56,0-4.96-.08-7.2-.24-2.24-.16-3.87-.3-4.9-.43l-1.44-.29c-.32-.77-.48-1.66-.48-2.69l.48-2.78,6.43-1.53Z"/>
    <path class="cls-1" d="M316.44,119.02l-6.24-1.53c-.32-.7-.48-1.63-.48-2.78l.48-2.69c3.39-.64,6.97-.96,10.75-.96,2.5,0,4.86.08,7.1.24,2.24.16,3.84.3,4.8.43l1.54.29c.32.77.48,1.66.48,2.69l-.48,2.78-4.61,1.15,7.96,29.56,8.06-29.56-4.61-1.15c-.32-.7-.48-1.63-.48-2.78l.48-2.69c3.39-.64,7.87-.96,13.43-.96,1.73,0,3.51.08,5.33.24,1.82.16,3.22.3,4.18.43l1.34.29c.38.77.57,1.66.57,2.69,0,.51-.05,1.01-.15,1.49-.09.48-.18.82-.24,1.01l-.19.29-6.34,1.53-14.3,45.2c-1.73,5.24-4.21,9.05-7.44,11.42-3.23,2.37-7.76,3.55-13.58,3.55-1.28,0-2.51-.09-3.69-.29-1.19-.19-2.06-.38-2.64-.58l-.77-.29c-.51-1.02-.77-2.3-.77-3.84,0-.64.06-1.28.19-1.92.13-.64.26-1.12.39-1.44l.19-.48c1.79.45,4.28.67,7.48.67,4.29,0,7.01-2.14,8.16-6.43l1.44-5.18-4.61-.39-12.77-40.02Z"/>
    <path class="cls-1" d="M397.84,127.28l-1.73-6.81c-1.79-1.09-3.87-1.63-6.24-1.63-2.82,0-4.77.64-5.86,1.92-1.09,1.28-1.63,3.42-1.63,6.43v16.32c0,3.01.66,5.15,1.97,6.43,1.31,1.28,3.69,1.92,7.15,1.92,2.5,0,4.94-.24,7.34-.72,2.4-.48,4.17-.94,5.33-1.39l1.73-.77c.57,1.09.86,2.43.86,4.03,0,.77-.08,1.49-.24,2.16-.16.67-.31,1.17-.43,1.49l-.19.48c-3.84,1.92-8.64,2.88-14.4,2.88-8.25,0-14.2-1.38-17.85-4.13-3.65-2.75-5.47-6.88-5.47-12.38v-16.32c0-5.5,1.69-9.63,5.09-12.38,3.39-2.75,8.93-4.13,16.61-4.13,3.01,0,5.93.34,8.78,1.01,2.85.67,4.94,1.33,6.29,1.97l2.01,1.06c0,2.24-.08,4.42-.24,6.53-.16,2.11-.33,3.65-.53,4.61l-.29,1.44c-1.09.26-2.46.38-4.13.38l-3.93-.38Z"/>
    <path class="cls-1" d="M418.47,151.65v-51.83l-6.43-1.53c-.32-.7-.48-1.63-.48-2.78l.48-2.69c3.07-.64,7.26-.96,12.57-.96l8.06.58v22.74c.39-.32.91-.73,1.58-1.25s2.09-1.18,4.27-2.02c2.17-.83,4.38-1.25,6.62-1.25,5.18,0,8.93,1.38,11.23,4.13,2.3,2.75,3.45,6.88,3.45,12.38v24.47l6.43,1.53c.32.71.48,1.63.48,2.78l-.48,2.69c-3.07.64-7.26.96-12.57.96l-8.06-.58v-31.86c0-3.07-.42-5.23-1.25-6.48-.83-1.25-2.37-1.87-4.61-1.87-1.47,0-2.8.32-3.98.96-1.19.64-2,1.28-2.45,1.92l-.67,1.06v28.89l6.43,1.53c.32.71.48,1.63.48,2.78l-.48,2.69c-3.33.64-7.84.96-13.53.96-2.56,0-4.96-.08-7.2-.24-2.24-.16-3.87-.3-4.9-.43l-1.44-.29c-.32-.77-.48-1.66-.48-2.69l.48-2.78,6.43-1.53Z"/>
  </g>
  <g>
    <path class="cls-1" d="M228.5,211.13l-5.71-17.98h2.15c1.41,4.5,4.38,13.8,4.76,15.95h.02c.46-2.33,3.58-11.54,5.06-15.95h2.09c1.32,4.06,4.55,14.11,4.9,15.9h.03c.59-2.53,3.67-11.65,5.12-15.9h2.05l-6.12,17.98h-2.23c-1.32-4.12-4.48-13.8-4.9-15.79h-.02c-.43,2.08-3.48,11.15-5.03,15.79h-2.17Z"/>
    <path class="cls-1" d="M262.58,193.16v17.98h-2.02v-17.98h2.02Z"/>
    <path class="cls-1" d="M276.36,211.13v-17.98h2.44c3.76,5.04,10.6,13.72,11.59,15.49h.05c-.16-2.47-.13-5.16-.13-8.06v-7.43h1.92v17.98h-2.31c-2.95-3.85-10.36-13.75-11.71-15.86h-.05c.13,2.34.13,4.89.13,8.06v7.8h-1.91Z"/>
    <path class="cls-1" d="M319.04,202.54h-10.99v6.83h12.1l-.29,1.76h-13.83v-17.98h13.59v1.76h-11.56v5.86h10.99v1.76Z"/>
    <path class="cls-1" d="M334.39,203.16v7.98h-2.02v-17.98h8.24c3.56,0,6.05,1.59,6.05,4.81,0,2.13-1.01,3.72-3.33,4.3,1.31.34,2.85,1.29,2.85,4.41v.76c0,1.42,0,2.97.2,3.7h-2.07c-.26-.78-.2-2.23-.2-3.63v-.6c0-2.89-1.13-3.75-4.43-3.75h-5.3ZM334.39,201.41h5.68c3,0,4.51-1.05,4.51-3.36,0-2.11-1.51-3.15-4.4-3.15h-5.79v6.51Z"/>
    <path class="cls-1" d="M364.51,211.13v-6.96c0-.17-.05-.27-.16-.41l-7.55-10.6h2.42c2.2,3.15,5.57,7.75,6.38,9.19.89-1.46,4.1-6.04,6.32-9.19h2.28l-7.53,10.64c-.08.13-.12.21-.12.42v6.93h-2.03Z"/>
  </g>
</svg>